<?xml version="1.0" encoding="UTF-8" standalone="no"?>
<!-- Created with Inkscape (http://www.inkscape.org/) -->
<svg xmlns:dc="http://purl.org/dc/elements/1.1/" xmlns:cc="http://creativecommons.org/ns#"
     xmlns:rdf="http://www.w3.org/1999/02/22-rdf-syntax-ns#" xmlns:svg="http://www.w3.org/2000/svg"
     xmlns="http://www.w3.org/2000/svg"
     xmlns:sodipodi="http://sodipodi.sourceforge.net/DTD/sodipodi-0.dtd"
     xmlns:inkscape="http://www.inkscape.org/namespaces/inkscape" id="svg2" version="1.1"
     inkscape:version="0.91 r13725" width="277.56149" height="230.77861"
     viewBox="0 0 277.56149 230.77861" sodipodi:docname="scanner-gauge_yellow2.svg">
    <metadata id="metadata8">
        <rdf:RDF>
            <cc:Work rdf:about="">
                <dc:format>image/svg+xml</dc:format>
                <dc:type rdf:resource="http://purl.org/dc/dcmitype/StillImage"/>
                <dc:title/>
            </cc:Work>
        </rdf:RDF>
    </metadata>
    <defs id="defs6"/>
    <sodipodi:namedview pagecolor="#dbdbdb" bordercolor="#666666" borderopacity="1"
                        objecttolerance="10" gridtolerance="10" guidetolerance="10"
                        inkscape:pageopacity="0" inkscape:pageshadow="2"
                        inkscape:window-width="1920" inkscape:window-height="1026" id="namedview4"
                        showgrid="false" fit-margin-top="0" fit-margin-left="0" fit-margin-right="0"
                        fit-margin-bottom="0" inkscape:showpageshadow="false"
                        inkscape:zoom="2.8284271" inkscape:cx="122.53288" inkscape:cy="138.64385"
                        inkscape:window-x="0" inkscape:window-y="0" inkscape:window-maximized="1"
                        inkscape:current-layer="layer5" showguides="true"
                        inkscape:guide-bbox="true">
        <sodipodi:guide position="0,0" orientation="0,277.56149" id="guide4151"/>
        <sodipodi:guide position="277.56149,0" orientation="-230.77861,0" id="guide4153"/>
        <sodipodi:guide position="277.56149,230.77861" orientation="0,-277.56149" id="guide4155"/>
        <sodipodi:guide position="0,230.77861" orientation="230.77861,0" id="guide4157"/>
        <sodipodi:guide position="138.78125,231.19531" orientation="1,0" id="guide4159"/>
        <sodipodi:guide position="-50.911688,98.641396" orientation="0,1" id="guide4161"/>
    </sodipodi:namedview>
    <g inkscape:groupmode="layer" id="layer3" inkscape:label="bg" style="display:none"
       sodipodi:insensitive="true">
        <path style="fill:#eeeeee;fill-opacity:1"
              d="M 37.695662,228.51926 C 21.781982,220.15621 3.9367512,184.0809 1.1962212,154.73323 c -1.78950404,-13.42 -1.46416304,-20.3631 0.26513,-31.95566 C 4.0854612,99.643056 14.080722,74.411471 27.695662,56.552874 51.287792,25.607281 87.900042,4.236553 122.92751,0.96563798 c 14.5007,-1.332805 20.08258,-1.314316 31.95566,0.23270702 22.73932,2.484914 48.29861,12.634057 66.68286,26.478596 31.15341,23.460549 52.32768,60.660025 55.11698,96.830859 1.34886,11.61094 0.97925,18.50235 0,28.41454 -2.21323,28.70043 -20.14488,67.42618 -34.61234,74.74984 -18.15785,9.1918 -37.5,-2.99879 -37.5,-23.63474 0,-5.58905 0.89919,-8.2019 5.71362,-16.60263 8.37557,-14.61455 11.69064,-23.53088 13.70488,-36.861 6.63486,-43.90931 -23.06969,-86.382671 -66.96248,-95.746983 -12.31246,-2.626803 -33.79195,-1.712288 -44.05014,1.875485 -11.13797,3.895474 -21.200098,9.717375 -30.166438,17.454163 -9.49444,8.192471 -15.15657,15.357041 -20.41355,25.830281 -6.82957,13.606204 -8.35778,20.797864 -8.36249,39.353314 -0.005,21.1343 1.86918,27.46251 14.78859,49.92402 7.24325,12.59304 6.48952,24.06084 -2.21072,33.63513 -6.60845,7.27236 -20.59828,9.99136 -28.91628,5.62004 z"
              id="path4144" inkscape:connector-curvature="0"
              sodipodi:nodetypes="sccsccsccsssssssscsss"/>
    </g>
    <g style="display:inline" inkscape:label="bg Kopie" id="g4142" inkscape:groupmode="layer">
        <path sodipodi:nodetypes="sccsccsccsssssssscsss" inkscape:connector-curvature="0"
              id="path4145"
              d="M 37.695662,228.51926 C 21.781982,220.15621 3.9367512,184.0809 1.1962212,154.73323 c -1.78950404,-13.42 -1.46416304,-20.3631 0.26513,-31.95566 C 4.0854612,99.643056 14.080722,74.411471 27.695662,56.552874 51.287792,25.607281 87.900042,4.236553 122.92751,0.96563798 c 14.5007,-1.332805 20.08258,-1.314316 31.95566,0.23270702 22.73932,2.484914 48.29861,12.634057 66.68286,26.478596 31.15341,23.460549 52.32768,60.660025 55.11698,96.830859 1.34886,11.61094 0.97925,18.50235 0,28.41454 -2.21323,28.70043 -20.14488,67.42618 -34.61234,74.74984 -18.15785,9.1918 -37.5,-2.99879 -37.5,-23.63474 0,-5.58905 0.89919,-8.2019 5.71362,-16.60263 8.37557,-14.61455 11.69064,-23.53088 13.70488,-36.861 6.63486,-43.90931 -23.06969,-86.382671 -66.96248,-95.746983 -12.31246,-2.626803 -33.79195,-1.712288 -44.05014,1.875485 -11.13797,3.895474 -21.200098,9.717375 -30.166438,17.454163 -9.49444,8.192471 -15.15657,15.357041 -20.41355,25.830281 -6.82957,13.606204 -8.35778,20.797864 -8.36249,39.353314 -0.005,21.1343 1.86918,27.46251 14.78859,49.92402 7.24325,12.59304 6.48952,24.06084 -2.21072,33.63513 -6.60845,7.27236 -20.59828,9.99136 -28.91628,5.62004 z"
              style="fill:#cbcbcb;fill-opacity:1"/>
    </g>
    <g inkscape:groupmode="layer" id="layer1" inkscape:label="red" style="display:none">
        <path style="fill:#ff0000"
              d="M 37.627833,228.20582 C 22.260984,221.07588 3.8907007,184.45554 1.2095707,155.60764 -0.26840109,141.44031 0.06236026,131.52738 1.8778987,119.83015 4.5849777,100.47909 10.090023,90.829897 21.025184,86.268979 c 6.575824,-2.742692 12.637808,-2.409292 19.456704,1.07009 13.270292,6.771245 17.328697,16.156281 14.30224,33.073831 -1.082375,6.05034 -1.502723,14.80359 -1.148575,23.91773 0.633271,16.29752 3.356469,24.74475 13.892791,43.09474 8.380396,14.59523 8.077996,25.49177 -0.984227,35.46441 -6.822283,7.50768 -19.263282,9.79485 -28.916284,5.31604 z"
              id="path4140" inkscape:connector-curvature="0" sodipodi:nodetypes="sccsssssss"/>
    </g>
    <g inkscape:groupmode="layer" id="layer2" inkscape:label="orange" style="display:none">
        <path style="fill:#ff6600"
              d="M 37.726649,228.77565 C 31.443415,225.86035 26.258325,220.33651 19.79455,209.67202 9.2973946,192.35294 2.8641617,173.34223 1.3478777,155.16067 0.2337195,142.99104 -0.19089433,136.4557 1.3626899,125.21297 2.1065728,117.88299 5.6387276,102.70724 9.4362076,90.525463 16.913631,66.538957 41.156884,37.025419 65.521074,22.248204 89.992145,7.4061649 107.80208,2.0667159 133.43951,1.8861379 c 15.28919,-0.10769 15.83454,0.6139441 20.22534,3.323961 10.33962,6.3816471 13.05043,15.8415861 10.79081,27.0648231 -1.10357,5.481398 -2.46957,7.860154 -7.27075,12.661325 -6.39852,6.398531 -6.72273,6.49636 -32.91168,9.931127 -23.93623,3.139317 -50.065676,22.553554 -62.098082,46.139016 -6.460983,12.66458 -7.967978,19.79964 -8.082817,38.26907 -0.136497,21.95287 0.928728,25.49865 15.579847,51.86015 12.804317,23.03859 -8.730042,48.4116 -31.945529,37.64004 z"
              id="path4138" inkscape:connector-curvature="0" sodipodi:nodetypes="ssccsssssssssss"/>
    </g>
    <g inkscape:groupmode="layer" id="layer4" inkscape:label="yellow" style="display:inline">
        <path style="display:inline;fill:#ffcc00"
              d="M 37.409683,229.13406 C 21.887101,220.97655 3.6139643,184.51552 1.0164513,156.51737 c -1.41051329,-14.4159 -1.24161416,-21.24112 0.158922,-33.125 0.487387,-4.29687 2.259706,-13.15625 3.9384853,-19.6875 C 19.154942,49.078397 69.201692,6.2731454 124.41169,1.6688071 c 15.58687,-1.35801594 17.97477,-0.87794463 29.56049,0.1331477 30.39219,2.5423817 72.26031,23.7098652 80.80246,40.8517222 3.736,7.497192 4.1167,13.66073 1.27152,20.586039 -3.08319,7.504626 -8.9275,12.79823 -16.58847,15.02533 -9.73918,2.831261 -15.24777,1.540662 -27.17645,-6.367135 -22.33239,-14.804667 -30.5014,-17.465453 -53.62156,-17.465453 -19.54531,0 -25.18855,1.278979 -39.375001,8.923908 -16.598967,8.945013 -29.608247,21.907029 -36.885617,36.751604 -7.106712,14.49648 -8.668543,21.68149 -8.661656,39.8469 0.0081,21.36697 1.314458,25.64349 15.655456,51.25 8.09869,14.4606 3.70376,30.40375 -10.37088,37.62165 -5.689921,2.91796 -16.356221,3.06974 -21.612299,0.30754 z"
              id="path4138-3" inkscape:connector-curvature="0"
              sodipodi:nodetypes="sccsccsssssssssss"/>
    </g>
    <g style="display:none" inkscape:label="green" id="g4254" inkscape:groupmode="layer">
        <path sodipodi:nodetypes="sccsccsccsssssssscsss" inkscape:connector-curvature="0"
              id="path4256"
              d="M 37.695662,228.51926 C 21.781982,220.15621 3.9367512,184.0809 1.1962212,154.73323 c -1.78950404,-13.42 -1.46416304,-20.3631 0.26513,-31.95566 C 4.0854612,99.643056 14.080722,74.411471 27.695662,56.552874 51.287792,25.607281 87.900042,4.236553 122.92751,0.96563798 c 14.5007,-1.332805 20.08258,-1.314316 31.95566,0.23270702 22.73932,2.484914 48.29861,12.634057 66.68286,26.478596 31.15341,23.460549 52.32768,60.660025 55.11698,96.830859 1.34886,11.61094 0.97925,18.50235 0,28.41454 -2.21323,28.70043 -20.14488,67.42618 -34.61234,74.74984 -18.15785,9.1918 -37.5,-2.99879 -37.5,-23.63474 0,-5.58905 0.89919,-8.2019 5.71362,-16.60263 8.37557,-14.61455 11.69064,-23.53088 13.70488,-36.861 6.63486,-43.90931 -23.06969,-86.382671 -66.96248,-95.746983 -12.31246,-2.626803 -33.79195,-1.712288 -44.05014,1.875485 -11.13797,3.895474 -21.200098,9.717375 -30.166438,17.454163 -9.49444,8.192471 -15.15657,15.357041 -20.41355,25.830281 -6.82957,13.606204 -8.35778,20.797864 -8.36249,39.353314 -0.005,21.1343 1.86918,27.46251 14.78859,49.92402 7.24325,12.59304 6.48952,24.06084 -2.21072,33.63513 -6.60845,7.27236 -20.59828,9.99136 -28.91628,5.62004 z"
              style="fill:#36d806;fill-opacity:1"/>
    </g>
    <g inkscape:groupmode="layer" id="layer5" inkscape:label="pointer">
        <path style="fill:#060606"
              d="m 125.38706,131.20652 c 4.75419,-4.38225 13.49152,-10.18765 64.86132,-43.096578 l 52.47519,-33.617043 c 4.95171,-2.684253 6.03717,0.332518 3.54705,3.314725 -1.89167,1.893457 -1.09853,1.683676 -55.52737,46.790636 -24.18138,20.03994 -46.18109,37.98358 -48.88836,39.87477 -10.54868,7.36903 -17.75498,6.72487 -21.65929,2.11421 -3.00529,-3.97645 0.83159,-11.2752 5.19146,-15.38072 z"
              id="path4144-3" inkscape:connector-curvature="0" sodipodi:nodetypes="csccsscc"/>
    </g>
</svg>